# xmcd CD database file
#
# Track frame offsets:
#	150
#	24887
#	53141
#	67453
#	76555
#	81547
#	111749
#	130479
#	152986
#	176278
#	181055
#	203959
#
# Disc length: 2785 seconds
#
# Revision: 0
# Processed by: cddbd v1.4PL0 Copyright (c) Steve Scherf et al.
# Submitted via: CDex 1.50beta9
#
DISCID=a50adf0c
DTITLE=Jean Paul Celea, Fancois Couturier - Passagio
DYEAR=1900
DGENRE=Jazz
TTITLE0=L'ibere
TTITLE1=Lucculus
TTITLE2=Arno
TTITLE3=Ole Rafafa
TTITLE4=Gala
TTITLE5=Norvegian Flamenco
TTITLE6=Hip
TTITLE7=Warm canto
TTITLE8=Hep
TTITLE9=Unknown 1
TTITLE10=Unknown 2
TTITLE11=Unknown 3
EXTD=
EXTT0=
EXTT1=
EXTT2=
EXTT3=
EXTT4=
EXTT5=
EXTT6=
EXTT7=
EXTT8=
EXTT9=
EXTT10=
EXTT11=
PLAYORDER=
